<svg width="1024" height="1024" viewBox="0 0 1024 1024" fill="none" xmlns="http://www.w3.org/2000/svg">
  <rect width="1024" height="1024" fill="#FCFBF7"/>
  <rect x="110" y="110" width="804" height="804" rx="120" fill="#FCFBF7" stroke="#D8D1C7" stroke-width="6"/>

  <g stroke="#9B746C" stroke-width="18" stroke-linecap="round" stroke-linejoin="round">
    <circle cx="418" cy="312" r="70"/>
    <path d="M348 304C360 256 398 226 450 226C496 226 536 254 548 306"/>
    <path d="M332 298V334"/>
    <path d="M504 298V334"/>

    <path d="M420 382V514"/>
    <path d="M394 430L420 454"/>
    <path d="M446 428L424 454"/>
    <path d="M404 454H442"/>
    <path d="M420 514L370 640"/>
    <path d="M420 514L522 614"/>
    <path d="M370 640L328 716"/>
    <path d="M522 614L580 666"/>
    <path d="M306 716H360"/>
    <path d="M558 666H606"/>

    <path d="M520 338C558 346 588 370 612 406"/>
    <circle cx="620" cy="448" r="48"/>
  </g>

  <rect x="602" y="430" width="36" height="36" rx="11" fill="#9B746C"/>

  <g fill="#9B746C">
    <circle cx="292" cy="736" r="6"/>
    <circle cx="314" cy="736" r="8"/>
    <rect x="336" y="726" width="16" height="20" rx="8"/>
    <rect x="362" y="708" width="18" height="56" rx="9"/>
    <rect x="390" y="682" width="20" height="108" rx="10"/>
    <rect x="420" y="648" width="22" height="176" rx="11"/>
    <rect x="452" y="682" width="20" height="108" rx="10"/>
    <rect x="482" y="712" width="18" height="48" rx="9"/>
    <rect x="510" y="726" width="16" height="20" rx="8"/>
    <circle cx="536" cy="736" r="7"/>
    <circle cx="560" cy="736" r="6"/>
    <rect x="586" y="720" width="16" height="32" rx="8"/>
    <rect x="612" y="692" width="18" height="88" rx="9"/>
    <rect x="640" y="654" width="22" height="164" rx="11"/>
    <rect x="672" y="632" width="22" height="208" rx="11"/>
    <rect x="704" y="690" width="20" height="92" rx="10"/>
  </g>

  <g stroke="#D7D0C7" stroke-width="4" stroke-linecap="round">
    <path d="M196 742H830"/>
    <path d="M196 826H830"/>
  </g>
</svg>
